<?xml version="1.0" standalone="no"?>
<!DOCTYPE svg PUBLIC "-//W3C//DTD SVG 20010904//EN"
 "http://www.w3.org/TR/2001/REC-SVG-20010904/DTD/svg10.dtd">
<svg version="1.0" xmlns="http://www.w3.org/2000/svg"
 width="1200.000000pt" height="717.000000pt" viewBox="0 0 1200.000000 717.000000"
 preserveAspectRatio="xMidYMid meet">

<g transform="translate(0.000000,717.000000) scale(0.100000,-0.100000)"
fill="#000000" stroke="none">
<path d="M0 7040 l0 -130 28 -1 27 -1 -27 -11 -28 -11 0 -127 0 -127 150 3
c83 2 150 0 150 -5 0 -4 -16 -20 -35 -34 -19 -15 -35 -33 -35 -40 0 -19 75
-36 155 -36 36 0 82 -7 101 -15 20 -8 40 -13 44 -10 5 3 18 1 31 -3 23 -9 23
-9 -5 -16 -15 -4 -30 -4 -35 -2 -4 3 -18 -16 -32 -42 -21 -40 -30 -48 -58 -50
-39 -4 -71 -33 -71 -65 0 -29 -50 -57 -121 -65 -38 -5 -55 -12 -57 -23 -5 -24
68 -39 193 -39 59 0 114 -4 123 -9 9 -5 41 -11 71 -14 30 -3 59 -11 64 -16 6
-6 39 -11 73 -11 46 0 68 -5 87 -20 14 -11 28 -20 33 -20 4 0 31 -12 61 -27
30 -14 78 -28 106 -31 33 -3 60 -12 74 -24 45 -41 174 -50 269 -18 32 11 71
20 87 20 24 0 27 -4 27 -30 0 -34 -25 -90 -40 -90 -6 0 -10 -3 -10 -7 0 -5 21
-8 48 -9 26 0 65 -6 87 -13 22 -7 53 -15 69 -18 16 -3 31 -14 33 -24 3 -11 8
-19 12 -19 59 -2 187 -22 208 -33 16 -8 75 -22 133 -30 92 -14 107 -14 120 -1
12 12 12 18 2 32 -7 9 -15 25 -18 35 -4 11 -21 19 -45 23 -22 4 -39 11 -39 16
0 6 12 8 28 4 15 -3 78 -9 140 -12 l112 -7 0 26 c0 30 23 41 72 33 18 -3 51
-8 73 -11 21 -3 47 -13 58 -22 16 -15 47 -17 255 -18 209 0 240 -2 262 -17 13
-10 19 -18 12 -18 -23 0 -12 -18 16 -23 15 -3 39 -17 53 -30 19 -18 43 -27 90
-32 51 -7 59 -10 39 -16 -14 -4 -46 -7 -72 -8 -47 -1 -71 -17 -48 -31 22 -14
144 -21 179 -10 24 7 38 6 48 -2 19 -15 195 -23 219 -10 17 10 15 11 -13 12
-49 0 -83 19 -79 44 2 12 10 19 17 17 60 -16 103 -22 237 -31 133 -9 155 -13
173 -31 17 -17 27 -20 53 -13 58 15 171 4 235 -22 59 -23 62 -24 102 -7 35 14
49 14 86 5 24 -7 70 -12 103 -12 32 0 62 -4 65 -10 4 -6 -9 -10 -32 -10 -22 0
-44 -5 -49 -10 -17 -17 -242 -14 -304 4 -37 10 -77 14 -123 11 -37 -3 -89 0
-115 7 -27 6 -194 14 -397 19 -360 7 -486 19 -519 48 -14 13 -36 16 -104 14
-47 -2 -91 2 -97 7 -7 6 -48 13 -92 17 -66 5 -85 3 -113 -13 -31 -17 -56 -18
-230 -16 -107 1 -215 6 -240 12 -25 5 -67 15 -95 21 -57 13 -164 26 -315 38
-65 4 -117 14 -137 24 -18 9 -39 17 -48 17 -9 0 -13 5 -9 11 12 20 -19 29
-102 29 -50 0 -95 -6 -117 -15 -47 -19 -94 -19 -132 1 -21 11 -71 18 -169 23
-93 4 -141 10 -143 18 -3 8 17 10 74 7 59 -4 83 -1 98 10 19 14 18 16 -26 35
-40 18 -59 20 -145 15 -88 -6 -102 -4 -123 13 -20 16 -22 23 -12 41 31 62 32
62 17 62 -32 0 -87 -32 -101 -60 -12 -23 -22 -30 -45 -30 -33 0 -38 14 -14 41
9 10 13 23 9 28 -8 14 -167 15 -181 2 -11 -11 -127 9 -162 28 -13 7 -21 18
-19 24 5 17 67 9 98 -14 29 -21 56 -24 78 -10 19 12 6 41 -19 41 -29 0 -110
20 -145 36 -16 7 -54 16 -82 19 -29 4 -67 11 -85 16 -18 5 -39 9 -45 9 -10 0
-13 -82 -13 -381 l0 -380 69 7 c49 4 70 3 76 -6 11 -18 -10 -27 -81 -35 l-64
-7 0 -98 0 -98 37 -5 c42 -6 151 -1 201 9 28 6 32 4 32 -16 0 -20 -3 -21 -49
-15 -42 6 -54 3 -80 -16 -22 -16 -44 -22 -85 -22 -41 0 -56 -4 -56 -13 0 -9
12 -14 35 -14 19 0 35 -4 35 -8 0 -4 -16 -6 -35 -4 -30 4 -35 1 -35 -17 0 -20
5 -21 99 -21 55 0 102 -4 105 -9 7 -11 69 -21 94 -14 11 3 22 13 25 24 7 25
27 24 34 -2 4 -16 13 -20 37 -18 71 5 200 -2 188 -10 -10 -6 -9 -11 4 -22 10
-9 46 -14 103 -15 130 -2 225 -22 237 -48 8 -18 20 -22 95 -26 58 -3 94 -11
112 -23 29 -19 28 -37 -2 -37 -9 0 -21 -4 -26 -8 -22 -18 -85 -33 -102 -24
-46 25 -91 30 -120 15 -22 -12 -54 -14 -143 -10 -90 3 -121 1 -145 -11 -19
-10 -73 -18 -150 -21 l-120 -6 90 -9 c50 -4 104 -9 120 -10 37 -2 57 -14 49
-28 -5 -8 1 -9 17 -5 13 4 28 7 32 7 5 0 6 4 2 10 -3 5 21 8 62 6 70 -3 149
-25 193 -54 14 -9 32 -16 40 -15 8 1 46 5 83 8 48 5 75 13 88 26 10 10 22 19
26 19 3 0 15 7 24 16 11 10 35 16 61 16 24 -1 102 -1 173 -1 73 0 143 -5 160
-11 16 -6 67 -14 112 -17 85 -6 95 -11 68 -33 -12 -10 -18 -10 -30 0 -17 14
-90 14 -190 1 -58 -8 -59 -8 -15 -10 25 -1 69 -12 98 -26 30 -14 66 -25 82
-25 15 0 41 -5 59 -11 26 -9 35 -8 50 5 10 9 35 16 56 16 26 0 46 7 63 23 21
20 33 22 115 21 136 -2 267 -13 307 -26 21 -7 123 -13 250 -14 118 -2 240 -4
270 -5 30 -1 93 0 140 1 47 2 163 -2 258 -8 129 -9 185 -9 218 -1 61 16 164 6
181 -16 10 -15 35 -18 155 -22 79 -2 173 -8 210 -13 37 -6 136 -10 220 -11 84
0 185 -5 223 -11 39 -5 103 -11 143 -12 55 -1 77 -5 85 -17 10 -14 53 -17 302
-23 160 -4 300 -10 313 -13 35 -8 72 5 72 26 0 11 -6 21 -12 24 -7 2 67 4 165
4 162 0 179 -2 188 -19 14 -26 66 -23 123 7 26 14 58 25 71 25 14 0 29 8 35
20 6 11 7 20 2 20 -30 0 -185 32 -222 46 -25 9 -58 18 -75 20 -16 2 -41 8 -55
13 -14 5 -59 12 -100 15 -41 4 -88 11 -105 16 -37 11 -230 32 -345 37 -47 2
-247 5 -445 6 -198 1 -366 6 -374 11 -8 5 -76 10 -151 11 -110 1 -142 5 -161
18 -15 11 -44 17 -81 17 -41 0 -58 4 -58 13 0 20 57 35 160 42 52 3 130 10
173 17 85 11 148 8 331 -17 73 -10 216 -18 375 -20 418 -7 539 -14 601 -36 34
-11 105 -23 185 -28 105 -8 132 -13 142 -28 7 -9 37 -23 66 -30 28 -8 64 -22
79 -33 15 -11 37 -20 48 -20 11 0 37 -7 57 -15 19 -8 51 -15 69 -15 25 0 38
-7 50 -26 10 -14 33 -34 53 -44 20 -11 54 -38 76 -60 25 -26 90 -68 173 -112
72 -38 132 -74 132 -80 0 -8 -83 -10 -277 -6 -153 3 -327 1 -388 -4 -139 -12
-150 -12 -325 2 -135 10 -147 9 -190 -9 -38 -16 -72 -20 -205 -22 -102 -1
-169 -7 -185 -14 -20 -10 -38 -10 -90 2 -36 8 -117 19 -180 23 -115 8 -294 41
-330 60 -10 5 -88 10 -173 10 -118 0 -157 3 -166 14 -20 24 -169 30 -244 10
-57 -15 -71 -16 -106 -4 -28 9 -62 11 -113 6 -107 -11 -113 -11 -228 8 -78 12
-160 16 -325 15 -265 -1 -337 4 -390 27 -45 20 -204 23 -420 9 -66 -4 -136 -7
-155 -6 -19 0 -368 3 -775 6 -407 3 -753 9 -770 14 -16 5 -135 12 -262 16
l-233 7 0 -136 c0 -102 3 -136 13 -136 6 0 52 5 101 10 54 7 93 7 100 1 6 -5
34 -11 61 -14 28 -3 64 -9 82 -12 20 -5 49 -1 77 8 41 14 46 14 64 -1 17 -15
35 -16 122 -11 73 4 113 2 141 -7 21 -8 45 -11 53 -8 8 3 25 0 38 -7 20 -11
159 -19 338 -20 19 0 100 0 179 0 108 0 151 -4 173 -15 16 -8 33 -12 39 -8 10
6 69 8 543 18 132 3 248 8 257 11 35 12 1910 31 2219 23 47 -1 112 3 145 10
33 7 128 12 210 12 83 0 206 5 275 10 69 6 199 12 290 15 90 3 169 10 174 15
6 6 48 10 94 10 75 0 84 -2 89 -20 7 -26 43 -26 77 1 28 22 48 22 136 -1 30
-8 78 -10 145 -5 55 4 107 6 115 5 8 -1 104 -3 212 -4 108 -1 200 -5 204 -9 4
-4 15 -7 24 -7 10 0 42 -11 72 -25 29 -13 62 -26 73 -28 11 -2 30 -8 41 -15
12 -6 24 -9 26 -7 3 3 27 -1 54 -9 27 -8 78 -22 114 -31 36 -9 75 -21 86 -25
12 -5 59 -14 105 -21 56 -8 96 -20 119 -35 19 -13 40 -24 46 -24 7 0 42 -24
78 -52 36 -29 80 -62 97 -73 56 -35 59 -47 38 -165 -18 -101 -18 -174 2 -186
5 -3 9 -17 9 -31 0 -14 13 -42 28 -62 72 -93 95 -140 102 -214 4 -40 15 -89
24 -110 11 -24 17 -68 18 -120 1 -97 -21 -352 -33 -384 -9 -25 -29 -31 -29 -9
0 15 -126 60 -141 50 -5 -2 -23 3 -40 11 -26 14 -81 18 -343 22 -653 10 -1247
8 -1254 -4 -6 -9 -164 -13 -612 -18 -333 -3 -668 -11 -745 -17 -164 -13 -464
-12 -551 2 -75 12 -180 18 -454 25 -321 8 -1016 33 -1255 45 -399 20 -802 29
-1270 30 -259 0 -499 5 -534 10 -35 5 -167 9 -295 10 -127 1 -251 5 -276 10
-89 18 -90 17 -90 -49 0 -67 5 -71 92 -71 26 0 50 -5 53 -10 4 -6 -22 -10 -69
-10 -70 0 -76 -2 -76 -20 0 -18 4 -20 34 -15 22 5 44 1 64 -9 22 -12 61 -16
134 -17 100 0 124 0 226 3 112 3 362 -12 417 -25 l60 -15 -80 -2 c-44 -1 -254
-3 -467 -3 l-388 -2 0 -1257 0 -1258 6000 0 6000 0 0 3585 0 3585 -949 0
c-869 0 -949 -1 -955 -16 -5 -14 -18 -16 -74 -12 -49 4 -71 1 -80 -8 -7 -8
-26 -14 -43 -14 -26 0 -29 2 -19 19 5 11 10 22 10 25 0 10 -198 6 -202 -3 -1
-6 -26 -13 -54 -16 -39 -6 -54 -4 -67 9 -14 15 -199 16 -2096 16 -2048 0
-2080 0 -2086 -19 -5 -17 -19 -21 -86 -27 -63 -5 -79 -10 -77 -22 4 -22 103
-44 161 -36 42 5 51 3 68 -15 22 -23 39 -23 195 0 45 7 78 8 90 2 18 -9 52 -9
234 3 l86 5 62 -42 c59 -38 67 -41 115 -36 29 2 62 1 75 -4 21 -8 23 -13 17
-52 -8 -49 3 -63 49 -69 16 -1 31 -8 33 -14 5 -15 -58 -27 -71 -14 -18 18 -62
11 -102 -16 -21 -15 -52 -31 -69 -36 -49 -16 -87 -36 -130 -68 -22 -16 -51
-34 -64 -40 l-24 -11 22 -15 c15 -11 52 -17 115 -20 90 -4 112 -10 195 -53 36
-19 58 -48 45 -60 -17 -15 -103 -33 -121 -26 -10 4 -34 9 -53 11 -19 3 -41 11
-50 19 -9 8 -19 15 -23 15 -3 0 -23 11 -43 25 -31 21 -45 24 -103 21 -37 -1
-73 -6 -80 -10 -7 -5 -20 -1 -31 9 -13 12 -27 15 -52 10 -38 -7 -239 12 -251
24 -12 12 68 29 168 36 50 3 103 11 119 17 23 9 31 9 34 0 5 -17 22 -15 22 2
0 17 -56 66 -76 66 -17 0 -18 12 -2 28 21 21 -8 36 -81 40 -61 4 -70 2 -90
-19 -15 -17 -20 -31 -16 -49 8 -38 -26 -50 -136 -50 -76 0 -99 -4 -145 -26
-30 -14 -54 -29 -54 -34 0 -4 20 -14 44 -21 56 -16 50 -29 -15 -29 -61 0 -116
25 -99 45 8 10 -2 15 -52 24 -116 20 -242 28 -388 26 -85 -1 -150 2 -158 8 -9
7 -17 5 -27 -9 -45 -63 -43 -62 -65 -34 -11 14 -20 31 -20 39 0 11 -9 12 -42
6 -24 -5 -65 -7 -93 -7 -74 2 -83 -4 -55 -33 19 -20 33 -25 74 -25 81 0 41
-19 -48 -22 -62 -2 -81 -7 -90 -20 -8 -14 -6 -20 8 -31 24 -18 15 -47 -15 -47
-12 0 -39 5 -60 11 -33 10 -42 9 -66 -7 -49 -33 -76 -45 -90 -40 -7 3 -41 -2
-76 -10 -61 -15 -66 -15 -108 3 -24 11 -72 28 -106 38 -59 18 -62 20 -56 44 3
14 10 31 15 37 22 29 -159 65 -221 44 -52 -17 -101 10 -119 67 -10 29 -22 44
-47 56 -19 9 -35 22 -35 28 0 6 22 32 49 59 45 44 53 48 112 53 124 11 169 20
180 33 16 19 93 18 109 -1 15 -18 53 -20 48 -3 -3 7 -15 15 -29 19 l-24 6 30
12 c39 16 79 6 70 -17 -17 -42 -12 -47 47 -47 32 0 58 3 58 8 0 4 13 7 29 7
36 0 41 -8 30 -37 -7 -19 -16 -23 -49 -23 -45 0 -76 -21 -66 -45 6 -17 3 -17
-71 -15 -72 2 -113 -22 -113 -66 0 -24 -5 -34 -20 -39 -11 -3 -20 -11 -20 -16
0 -14 86 -11 122 5 48 21 168 56 192 56 12 0 25 9 31 22 17 38 61 53 145 49
41 -2 117 -4 168 -4 93 -1 94 0 118 30 13 18 45 39 72 49 46 18 71 39 72 59 0
26 -23 38 -86 46 -184 24 -197 29 -209 76 -4 17 -1 31 11 44 12 13 15 28 10
54 l-7 35 -174 0 c-171 0 -175 0 -175 -21 0 -19 -5 -21 -37 -17 -21 3 -48 0
-61 -5 -15 -7 -29 -7 -45 1 -32 16 -117 22 -143 10 -19 -9 -22 -17 -20 -55 l2
-45 -35 5 c-71 10 -122 25 -139 39 -9 8 -25 18 -35 21 -10 4 -25 20 -35 37
l-17 30 -710 0 -709 0 -22 -27 c-21 -27 -44 -31 -124 -23 -14 2 -79 -1 -145
-5 -113 -7 -123 -6 -164 15 -37 19 -53 21 -95 15 -28 -4 -82 -8 -119 -9 -55
-1 -71 3 -81 17 -12 16 -52 17 -595 17 l-581 0 0 -130z m7838 63 c-2 -11 -12
-17 -23 -16 -11 2 -29 -2 -41 -8 -28 -14 -69 -8 -69 11 0 15 39 26 103 29 27
1 33 -2 30 -16z m-4078 -12 c0 -25 -50 -45 -89 -36 -40 9 -39 16 7 37 52 23
82 23 82 -1z m3404 -67 c9 -3 16 -12 16 -20 0 -7 14 -20 30 -29 17 -9 30 -20
30 -25 0 -9 21 -17 62 -26 80 -16 93 -21 96 -37 6 -30 -40 -42 -103 -28 -30 7
-56 18 -57 24 0 7 -2 18 -2 26 -1 11 -14 14 -56 13 -30 -1 -60 1 -66 5 -42 30
-35 103 10 103 13 0 31 -3 40 -6z m-2954 -54 c0 -13 -28 -25 -38 -16 -3 4 0
11 8 16 20 13 30 12 30 0z m2280 -10 c0 -23 -42 -45 -49 -26 -2 6 -9 14 -15
18 -6 4 -1 11 14 17 38 15 50 13 50 -9z m575 -50 c10 -11 16 -21 14 -23 -2 -1
-12 -8 -21 -15 -13 -11 -20 -11 -37 0 -24 15 -26 29 -9 46 17 17 32 15 53 -8z
m-520 -79 c-17 -16 -45 -32 -62 -36 -30 -6 -33 -4 -33 17 0 36 19 48 74 48
l51 0 -30 -29z m715 -57 c252 -14 270 -16 270 -39 0 -22 -36 -28 -125 -20 -64
5 -90 3 -119 -9 -21 -9 -35 -20 -31 -26 13 -21 116 -41 260 -51 82 -5 193 -19
245 -29 52 -11 113 -21 135 -22 50 -4 59 -30 17 -47 -21 -9 -50 -9 -108 -2
-81 10 -153 0 -217 -29 -24 -12 -30 -11 -50 8 -24 23 -52 28 -76 13 -9 -6 -10
-14 -5 -22 5 -8 14 -30 19 -49 12 -40 38 -50 65 -25 14 13 28 15 59 10 35 -6
40 -10 36 -28 -7 -34 57 -71 108 -63 48 8 77 26 77 48 0 21 34 24 84 9 17 -5
50 -15 74 -22 23 -7 42 -16 42 -20 0 -4 21 -11 46 -15 49 -7 60 -20 50 -58 -7
-30 -31 -39 -59 -25 -11 7 -48 14 -81 16 -34 2 -71 10 -83 18 -29 19 -49 19
-57 -1 -5 -13 -21 -15 -94 -13 -161 6 -239 1 -258 -18 -14 -14 -35 -18 -98
-18 -70 0 -85 3 -113 24 -45 34 -43 51 7 51 36 0 40 3 40 25 0 25 10 30 52 26
10 -1 25 2 35 8 11 6 24 6 35 0 9 -5 34 -5 54 -1 l38 8 -45 13 c-24 7 -56 19
-71 27 -14 8 -44 14 -67 14 -31 0 -49 7 -74 30 -19 17 -41 30 -49 30 -9 0 -39
10 -67 22 -45 18 -59 20 -106 11 -40 -7 -60 -6 -77 3 -20 11 -21 13 -5 19 24
10 21 22 -6 29 -30 7 -84 63 -71 75 10 10 77 20 144 20 41 1 43 2 25 15 -13 8
-81 18 -190 26 -160 11 -275 33 -275 51 0 4 10 9 23 11 29 5 515 -1 637 -8z
m-4683 -20 c30 -12 45 -24 52 -46 9 -25 8 -30 -12 -39 -48 -22 -77 -41 -77
-50 0 -5 -22 -9 -48 -9 -41 0 -53 -5 -78 -30 -16 -16 -33 -30 -38 -30 -13 0
-56 41 -56 54 0 15 29 32 69 41 25 5 31 11 25 23 -3 10 -9 27 -11 40 -4 15
-13 22 -29 22 -16 0 -24 6 -24 18 0 15 12 17 93 19 64 2 105 -2 134 -13z
m1343 -4 c0 -23 -31 -27 -49 -7 -14 17 -4 27 26 27 16 0 23 -6 23 -20z m-3420
-101 c36 -11 75 -27 87 -34 12 -8 27 -15 33 -15 6 0 18 -7 26 -15 14 -13 12
-15 -16 -15 -17 0 -52 8 -78 19 -77 30 -134 44 -189 45 -34 1 -53 5 -53 13 0
28 104 29 190 2z m7880 5 c74 -6 110 -22 110 -49 0 -22 -85 -47 -152 -44 -69
4 -88 -3 -88 -30 0 -27 -51 -45 -107 -37 -26 3 -52 11 -57 16 -6 6 -25 10 -43
10 -17 0 -43 5 -57 11 -21 10 -23 15 -15 30 5 11 16 19 24 19 8 0 19 8 24 19
6 10 23 21 38 24 16 4 48 10 73 15 25 5 56 14 70 20 14 7 43 9 65 6 22 -3 74
-8 115 -10z m-3625 -44 c3 -5 -1 -10 -10 -10 -9 0 -13 5 -10 10 3 6 8 10 10
10 2 0 7 -4 10 -10z m-2115 -9 c0 -15 -30 -41 -46 -41 -19 0 -18 10 4 31 18
19 42 25 42 10z m2827 3 c-3 -3 -12 -4 -19 -1 -8 3 -5 6 6 6 11 1 17 -2 13 -5z
m-2426 -29 c36 -15 22 -19 -30 -9 -17 4 -31 10 -31 15 0 13 23 11 61 -6z m288
-5 c65 -12 64 -12 56 -1 -8 14 15 25 28 12 8 -8 0 -15 -28 -27 -39 -16 -81
-15 -142 4 -18 6 -33 8 -33 6 0 -3 -6 -2 -12 3 -15 9 37 23 62 17 8 -2 39 -8
69 -14z m-2569 -32 c0 -13 -27 -9 -40 7 -7 8 -19 15 -26 15 -8 0 -14 4 -14 9
0 5 18 2 40 -6 22 -9 40 -20 40 -25z m1715 -128 c19 -8 19 -9 -2 -9 -12 -1
-25 4 -28 9 -7 12 2 12 30 0z m55 -16 c0 -2 -7 -4 -15 -4 -8 0 -15 4 -15 10 0
5 7 7 15 4 8 -4 15 -8 15 -10z m190 -19 c10 -12 10 -15 -3 -15 -8 0 -20 7 -27
15 -10 12 -10 15 3 15 8 0 20 -7 27 -15z m-1581 -21 c2 -2 -17 -4 -42 -4 -26
0 -47 4 -47 9 0 8 79 3 89 -5z m5821 -35 c0 21 9 8 19 -27 7 -25 6 -30 -5 -25
-8 3 -12 9 -9 13 3 4 -2 10 -10 14 -8 3 -15 13 -15 23 0 15 2 16 10 3 8 -12
10 -12 10 -1z m-5445 -29 c3 -5 0 -10 -8 -10 -15 0 -32 -29 -23 -38 3 -2 38
-7 78 -10 47 -3 76 -10 81 -18 4 -8 17 -14 27 -14 10 0 21 -4 24 -9 3 -5 43
-14 88 -21 109 -15 129 -20 122 -31 -3 -5 8 -9 24 -9 16 0 47 -7 67 -16 57
-24 27 -36 -70 -28 -58 4 -96 14 -140 35 -33 16 -70 29 -82 29 -12 0 -23 4
-25 9 -1 6 -43 17 -93 26 -49 10 -107 23 -128 31 -20 8 -64 14 -97 14 -33 0
-60 4 -60 10 0 6 15 10 34 10 46 0 86 16 86 35 0 11 11 15 44 15 25 0 48 -4
51 -10z m934 -7 c43 -25 40 -43 -9 -43 -28 0 -40 4 -40 14 0 8 -3 21 -6 30 -8
21 16 21 55 -1z m-1571 -20 c-10 -2 -28 -2 -40 0 -13 2 -5 4 17 4 22 1 32 -1
23 -4z m1927 -13 c12 -19 -38 -50 -74 -47 -40 2 -49 18 -26 41 18 18 90 22
100 6z m661 1 c5 -5 18 -11 29 -14 20 -5 19 -5 -1 -6 -11 0 -29 6 -40 14 -10
8 -14 15 -8 15 5 0 14 -4 20 -9z m-2401 -65 c22 1 68 5 102 9 86 11 114 -2 48
-22 -81 -24 -124 -26 -230 -13 -117 14 -135 18 -135 31 0 7 31 7 88 2 48 -4
105 -7 127 -7z m1913 -22 c29 -33 28 -73 -3 -102 -20 -19 -33 -23 -82 -21 -32
1 -92 -2 -134 -6 -73 -7 -75 -7 -92 18 -25 38 -5 49 69 37 94 -16 148 2 113
37 -9 9 -4 20 20 43 37 38 71 35 109 -6z m887 -5 c5 -5 -18 -9 -58 -9 -60 0
-88 11 -55 22 20 7 102 -3 113 -13z m-684 -15 c27 -2 89 -30 89 -40 0 -4 -42
0 -97 12 -12 2 -28 14 -34 25 -9 17 -8 20 2 13 8 -4 26 -9 40 -10z m3823 -14
c7 -7 -21 -10 -91 -10 -113 0 -150 17 -51 23 79 5 128 1 142 -13z m-3860 -51
c-7 -13 -31 -11 -40 2 -9 16 18 30 33 17 7 -6 10 -14 7 -19z m-1385 2 c24 -15
-4 -20 -104 -16 -119 5 -122 6 -70 15 58 10 158 11 174 1z m491 -11 c24 0 31
-3 21 -9 -11 -7 -11 -9 0 -14 8 -3 2 -6 -13 -6 -15 -1 -30 4 -33 9 -3 6 -22
10 -41 10 -21 0 -33 -4 -29 -10 4 -6 -7 -10 -24 -10 -17 0 -31 4 -31 8 0 17
45 32 80 27 19 -3 51 -5 70 -5z m67 -26 c-3 -3 -12 -4 -19 -1 -8 3 -5 6 6 6
11 1 17 -2 13 -5z m-494 -29 c48 -6 60 -18 31 -29 -27 -11 -61 -6 -74 9 -7 9
-31 16 -59 16 -45 2 -46 2 -11 9 19 4 42 6 50 4 8 -1 36 -5 63 -9z m2256 -67
c35 -16 73 -21 185 -25 172 -5 166 -5 166 -14 0 -13 -44 -14 -210 -8 -177 7
-247 22 -283 58 l-22 23 60 -7 c33 -4 80 -16 104 -27z m-2015 -9 l31 -7 -36
-1 c-25 -1 -39 4 -43 15 -4 10 -2 13 6 8 6 -4 25 -11 42 -15z m-1599 -29 c-3
-5 -17 -10 -31 -10 -14 0 -22 4 -19 10 3 6 17 10 31 10 14 0 22 -4 19 -10z
m3295 -45 c9 -10 24 -13 56 -8 52 7 57 -6 12 -29 -37 -19 -74 -18 -133 2 -44
16 -73 36 -39 28 12 -3 32 1 45 8 31 17 44 17 59 -1z m-343 -37 c14 -13 34
-21 53 -19 50 3 64 2 98 -5 59 -12 33 -19 -65 -19 -63 0 -107 5 -122 14 -23
13 -61 12 -178 -5 -51 -7 -60 11 -10 19 17 4 58 10 90 16 33 5 61 12 65 15 12
13 47 5 69 -16z m1503 12 c8 -5 11 -10 5 -10 -5 0 -17 5 -25 10 -8 5 -10 10
-5 10 6 0 17 -5 25 -10z m-725 -15 c0 -5 -12 -14 -27 -19 -29 -10 -92 9 -82
26 8 12 109 6 109 -7z m879 -40 c45 -19 47 -27 4 -13 -18 5 -49 14 -68 18
l-35 8 31 1 c17 0 48 -6 68 -14z m165 -21 c2 -2 -20 -4 -50 -4 -36 0 -49 3
-40 9 13 8 79 4 90 -5z m131 -24 c0 -5 -14 -10 -31 -10 -17 0 -28 4 -24 10 3
6 17 10 31 10 13 0 24 -4 24 -10z m-2100 -10 c0 -5 -4 -10 -9 -10 -6 0 -13 5
-16 10 -3 6 1 10 9 10 9 0 16 -4 16 -10z m130 -50 c-20 -13 -47 -13 -55 0 -4
6 9 10 32 10 28 0 34 -3 23 -10z m820 -6 c0 -8 -4 -12 -10 -9 -5 3 -10 10 -10
16 0 5 5 9 10 9 6 0 10 -7 10 -16z m642 -28 c14 -8 58 -19 96 -26 66 -11 70
-13 76 -41 5 -27 26 -42 26 -19 0 6 7 10 16 10 8 0 13 4 10 9 -3 5 6 12 21 16
14 3 29 2 32 -3 3 -5 24 -13 46 -16 50 -9 73 -22 60 -34 -15 -14 -272 -25
-280 -12 -3 5 1 10 9 10 14 0 14 3 4 20 -14 23 -102 53 -158 55 -19 0 -40 4
-47 8 -7 4 -16 0 -22 -10 -9 -15 -10 -13 -11 13 0 29 1 30 48 32 26 1 59 -4
74 -12z m-145 -42 c-3 -3 -12 -4 -19 -1 -8 3 -5 6 6 6 11 1 17 -2 13 -5z
m-152 -24 c-3 -5 -10 -10 -16 -10 -5 0 -9 5 -9 10 0 6 7 10 16 10 8 0 12 -4 9
-10z m880 -19 l40 -7 -40 -7 c-43 -7 -85 0 -85 14 0 11 30 11 85 0z m-595 -11
c0 -6 -42 -10 -106 -10 -67 0 -103 4 -99 10 3 6 50 10 106 10 59 0 99 -4 99
-10z m1570 -50 c14 -4 21 -9 15 -9 -5 -1 -27 -4 -48 -7 -49 -7 -97 3 -76 17
17 10 74 10 109 -1z m-5865 -80 c33 -5 76 -14 95 -19 19 -6 66 -13 104 -17 92
-8 65 -25 -46 -29 -72 -3 -81 -1 -85 16 -5 16 -15 19 -69 19 -36 0 -64 4 -64
10 0 12 -24 13 -48 1 -83 -43 -89 -44 -165 -38 -42 3 -82 9 -88 13 -16 10 64
34 116 34 22 0 63 7 90 15 28 7 61 12 75 9 14 -3 52 -9 85 -14z m668 -3 l29
-15 -30 -7 c-17 -3 -56 1 -90 9 -33 9 -70 16 -83 16 -13 0 -31 5 -39 11 -24
17 179 4 213 -14z m249 11 c-9 -9 -15 -9 -24 0 -9 9 -7 12 12 12 19 0 21 -3
12 -12z m1473 2 c8 -12 -91 -12 -120 0 -14 6 0 9 47 9 37 1 70 -3 73 -9z
m-1040 -40 c50 -4 99 -9 110 -10 11 -2 -5 -6 -35 -10 -66 -10 -210 -1 -227 13
-25 19 -13 29 25 23 20 -4 78 -11 127 -16z m1243 -17 c-10 -2 -28 -2 -40 0
-13 2 -5 4 17 4 22 1 32 -1 23 -4z m200 0 c-26 -2 -71 -2 -100 0 -29 2 -8 3
47 3 55 0 79 -1 53 -3z m-1693 -13 c4 -6 -6 -10 -22 -10 -22 0 -25 2 -13 10
19 12 27 12 35 0z m-365 -45 c-6 -13 -230 -10 -285 3 -31 8 -1 10 125 9 106
-1 163 -6 160 -12z m170 1 c0 -2 -18 -6 -40 -8 -22 -2 -40 0 -40 4 0 5 18 8
40 8 22 0 40 -2 40 -4z m810 -54 c0 -4 -9 -13 -20 -20 -16 -10 -24 -10 -40 0
-30 19 -24 28 20 28 22 0 40 -3 40 -8z m-205 -12 c16 -7 12 -9 -18 -9 -23 -1
-36 3 -32 9 7 12 23 12 50 0z m-1285 -9 c0 -13 -29 -21 -72 -19 -20 1 -44 -4
-51 -11 -8 -6 -39 -11 -68 -9 -30 1 -74 -3 -99 -8 -55 -12 -90 -7 -90 12 0 10
12 14 43 14 24 0 47 4 53 10 5 5 59 11 119 13 61 1 122 4 138 5 15 1 27 -2 27
-7z m175 -1 c4 -6 -20 -10 -64 -10 -41 0 -71 4 -71 10 0 6 28 10 64 10 36 0
68 -4 71 -10z m1025 -300 c20 -6 14 -8 -27 -9 -29 -1 -53 3 -53 9 0 12 44 12
80 0z m379 -36 c-12 -15 -37 -18 -63 -8 -39 15 -5 33 47 26 22 -4 25 -7 16
-18z m541 7 c0 -5 -7 -14 -15 -21 -13 -11 -26 -11 -67 -1 -43 9 -54 9 -67 -3
-26 -24 -94 -31 -110 -12 -28 34 -8 41 128 44 72 1 131 -2 131 -7z m-700 -21
c0 -5 -2 -10 -4 -10 -3 0 -8 5 -11 10 -3 6 -1 10 4 10 6 0 11 -4 11 -10z
m1208 -7 c43 -3 62 -9 62 -18 0 -18 -34 -22 -90 -13 -25 5 -62 11 -82 14 -21
4 -35 10 -32 15 5 9 40 10 142 2z m1526 -252 c3 -5 -1 -14 -9 -21 -13 -11 -21
-10 -42 1 l-25 14 23 6 c35 10 47 10 53 0z m384 -80 c9 -5 -7 -10 -43 -14 -58
-6 -85 -2 -85 14 0 11 110 12 128 0z m1237 -281 c3 -5 -3 -10 -14 -10 -12 0
-21 5 -21 10 0 6 6 10 14 10 8 0 18 -4 21 -10z m-1705 -1661 c0 -11 -118 -10
-145 1 -13 5 9 8 63 8 45 0 82 -5 82 -9z m-3402 -76 c-21 -2 -55 -2 -75 0 -21
2 -4 4 37 4 41 0 58 -2 38 -4z"/>
<path d="M7243 6617 c-24 -4 -43 -12 -43 -16 0 -17 90 -39 127 -31 34 8 72 35
62 43 -10 10 -107 12 -146 4z"/>
<path d="M4780 7146 c0 -28 28 -36 124 -36 116 0 216 24 216 51 0 5 -76 9
-170 9 l-170 0 0 -24z"/>
<path d="M5735 7020 c-3 -5 -2 -10 4 -10 5 0 13 5 16 10 3 6 2 10 -4 10 -5 0
-13 -4 -16 -10z"/>
<path d="M5305 6971 c-7 -12 12 -24 25 -16 11 7 4 25 -10 25 -5 0 -11 -4 -15
-9z"/>
<path d="M4687 6860 c-51 -9 -65 -24 -49 -50 7 -12 8 -21 2 -25 -18 -11 -11
-23 26 -45 l37 -21 28 27 c16 15 29 35 29 44 0 8 7 26 16 38 28 40 1 50 -89
32z"/>
<path d="M4110 6666 c0 -13 11 -16 53 -15 54 0 47 9 -20 23 -26 6 -33 4 -33
-8z"/>
<path d="M114 6578 c-4 -5 -1 -15 5 -21 16 -16 14 -25 -14 -43 -23 -15 -27
-15 -58 5 -19 12 -37 21 -41 21 -3 0 -6 -31 -6 -70 0 -80 5 -83 70 -50 26 13
66 21 117 24 92 5 86 4 78 16 -3 6 -24 10 -46 10 -37 0 -39 1 -39 33 0 53 -10
75 -36 80 -14 2 -27 0 -30 -5z"/>
<path d="M0 6305 c0 -29 4 -35 25 -40 14 -3 36 -7 51 -10 16 -4 35 2 56 16
l31 22 -27 24 c-21 18 -39 23 -82 23 l-54 0 0 -35z"/>
<path d="M295 6320 c3 -5 8 -10 11 -10 2 0 4 5 4 10 0 6 -5 10 -11 10 -5 0 -7
-4 -4 -10z"/>
<path d="M887 5993 c-4 -3 0 -15 10 -25 28 -31 103 -18 90 16 -5 11 -19 16
-50 16 -24 0 -47 -3 -50 -7z"/>
<path d="M1237 5919 c-9 -6 -15 -14 -12 -18 2 -5 -2 -14 -10 -21 -8 -7 -15
-19 -15 -26 0 -22 93 -18 130 5 29 17 30 19 14 36 -32 32 -76 42 -107 24z"/>
<path d="M2969 5815 c-4 -3 -183 -7 -399 -8 -375 -2 -392 -3 -406 -22 -20 -27
-13 -39 24 -43 21 -2 33 -10 37 -23 6 -19 14 -20 169 -17 136 2 165 6 179 20
29 29 150 35 253 13 28 -6 32 -4 37 18 6 22 10 24 57 19 39 -4 51 -1 56 11 7
19 2 41 -7 32z"/>
<path d="M120 4820 c-8 -5 -28 -10 -45 -10 -16 0 -36 -4 -44 -9 -10 -6 13 -12
70 -17 110 -11 103 -11 107 7 2 11 -8 20 -29 28 -38 13 -40 13 -59 1z"/>
<path d="M5723 4713 c9 -2 23 -2 30 0 6 3 -1 5 -18 5 -16 0 -22 -2 -12 -5z"/>
</g>
</svg>
